<svg width="116" height="153" viewBox="0 0 116 153" fill="none" xmlns="http://www.w3.org/2000/svg">
<g clip-path="url(#clip0_34_5)">
<path d="M87.2158 85.2149L88.2361 83.4842H88.6169V86.7852H88.25V84.1586H88.2408L87.3805 85.6111H87.0418L86.1768 84.1586H86.1675V86.7852H85.8008V83.4842H86.1816L87.2065 85.2149H87.2158ZM84.2125 86.7852H83.8362V83.8049H82.8255V83.4842H85.2184V83.8049H84.2125V86.7852Z" fill="#0D4D8E"/>
<mask id="mask0_34_5" style="mask-type:luminance" maskUnits="userSpaceOnUse" x="21" y="0" width="73" height="90">
<path d="M57.2534 0.716446C32.0064 0.716446 21.2679 20.6375 21.2679 45.211C21.2679 69.785 32.0064 89.7466 57.2534 89.7466C82.5006 89.7466 93.239 69.785 93.239 45.211C93.239 20.6375 82.5006 0.716446 57.2534 0.716446Z" fill="white"/>
</mask>
<g mask="url(#mask0_34_5)">
<path d="M77.6137 6.7231C74.7902 4.70641 71.5572 3.14829 67.8931 2.13166L57.2055 45.8428L77.6137 6.7231Z" fill="#F05549"/>
<path d="M57.2055 45.8428L84.9236 14.1391C82.8703 11.2314 80.417 8.71033 77.5367 6.66681L57.2055 45.8428Z" fill="#FEC23D"/>
<path d="M57.2055 45.8428L89.5928 23.0955C88.3672 19.825 86.8152 16.8183 84.9236 14.1393L57.2055 45.8428Z" fill="#0D4D8E"/>
<path d="M67.8931 2.13166C64.6686 1.23698 61.1117 0.760078 57.2055 0.760078V45.8428L67.8931 2.13166Z" fill="#00AB54"/>
<path d="M77.8554 83.5981L57.2055 45.8428L67.1452 88.5735C71.2251 87.5372 74.7852 85.8417 77.8554 83.5981Z" fill="#00AB54"/>
<path d="M77.8554 83.5981C80.6277 81.572 82.9995 79.0987 84.9902 76.2574L57.2055 45.8428L77.8554 83.5981Z" fill="white"/>
<path d="M84.99 76.2574C86.8271 73.6355 88.3409 70.7021 89.5449 67.5176L57.2055 45.8428L84.99 76.2574Z" fill="#FEC23D"/>
<path d="M92.0206 58.5533C92.5487 55.7393 92.895 52.8056 93.0655 49.7821L57.2055 45.8428L92.0206 58.5533Z" fill="#F05549"/>
<path d="M92.0752 32.2408C91.488 29.0225 90.6652 25.9582 89.5928 23.0953L57.2055 45.8428L92.0752 32.2408Z" fill="#252524"/>
<path d="M93.0844 41.1048C92.9276 38.0501 92.5942 35.085 92.0752 32.2408L57.2055 45.8428L93.0844 41.1048Z" fill="white"/>
<path d="M93.0653 49.7821C93.1494 48.2934 93.191 46.7831 93.191 45.2546C93.191 43.8551 93.1544 42.4713 93.0844 41.1045L57.2057 45.8428L93.0653 49.7821Z" fill="#00AB54"/>
<path d="M89.5449 67.5176C90.6065 64.7092 91.4284 61.7069 92.0206 58.5533L57.2055 45.8428L89.5449 67.5176Z" fill="#0D4D8E"/>
<path d="M36.7973 6.7231C39.6206 4.70641 42.8541 3.14829 46.5182 2.13166L57.2055 45.8428L36.7973 6.7231Z" fill="#252524"/>
<path d="M57.2055 45.8428L29.4874 14.1391C31.5406 11.2314 33.9941 8.71033 36.8743 6.66681L57.2055 45.8428Z" fill="#FEC23D"/>
<path d="M57.2055 45.8428L24.8183 23.0955C26.0439 19.825 27.5959 16.8183 29.4874 14.1393L57.2055 45.8428Z" fill="#F05549"/>
<path d="M46.5182 2.13166C49.7425 1.23698 53.2994 0.760078 57.2056 0.760078V45.8428L46.5182 2.13166Z" fill="#FEC23D"/>
<path d="M36.5557 83.5981L57.2055 45.8428L47.2659 88.5735C43.1862 87.5372 39.6258 85.8417 36.5557 83.5981Z" fill="#FEC23D"/>
<path d="M36.5557 83.5981C33.7833 81.572 31.4116 79.0987 29.4207 76.2574L57.2055 45.8428L36.5557 83.5981Z" fill="#F05549"/>
<path d="M29.4211 76.2574C27.5837 73.6355 26.0702 70.7021 24.8661 67.5176L57.2055 45.8428L29.4211 76.2574Z" fill="#252524"/>
<path d="M22.3904 58.5533C21.8623 55.7393 21.5159 52.8056 21.3456 49.7821L57.2055 45.8428L22.3904 58.5533Z" fill="white"/>
<path d="M22.3358 32.2408C22.9231 29.0225 23.7458 25.9582 24.8183 23.0953L57.2055 45.8428L22.3358 32.2408Z" fill="white"/>
<path d="M21.3264 41.1048C21.4835 38.0501 21.8169 35.085 22.3358 32.2408L57.2055 45.8428L21.3264 41.1048Z" fill="#0D4D8E"/>
<path d="M21.3456 49.7821C21.2613 48.2745 21.2194 46.7647 21.2201 45.2546C21.2201 43.8551 21.2564 42.4713 21.3267 41.1045L57.2055 45.8428L21.3456 49.7821Z" fill="#F05549"/>
<path d="M24.8662 67.5176C23.8044 64.7092 22.9827 61.7069 22.3904 58.5533L57.2056 45.8428L24.8662 67.5176Z" fill="#00AB54"/>
</g>
<path d="M57.2053 18.9015C57.2053 18.9015 69.1348 19.3134 69.3895 18.6153C69.6598 17.8747 70.6464 14.6904 70.6464 12.5947C70.6464 8.81702 66.8524 7.07608 65.7273 6.51257C62.8804 5.0871 59.6412 4.81331 57.2053 4.81331C54.7694 4.81331 51.5301 5.0871 48.6833 6.51257C47.5582 7.07608 43.7641 8.81702 43.7641 12.5947C43.7641 14.6904 44.7506 17.8747 45.021 18.6153C45.2756 19.3134 57.2053 18.9015 57.2053 18.9015Z" fill="#C6D8E3"/>
<mask id="mask1_34_5" style="mask-type:luminance" maskUnits="userSpaceOnUse" x="43" y="4" width="28" height="16">
<path d="M57.2053 18.9015C57.2053 18.9015 69.1348 19.3134 69.3895 18.6153C69.6598 17.8747 70.6464 14.6904 70.6464 12.5947C70.6464 8.81702 66.8524 7.07608 65.7273 6.51257C62.8804 5.0871 59.6412 4.81331 57.2053 4.81331C54.7694 4.81331 51.5301 5.0871 48.6833 6.51257C47.5582 7.07608 43.7641 8.81702 43.7641 12.5947C43.7641 14.6904 44.7506 17.8747 45.021 18.6153C45.2756 19.3134 57.2053 18.9015 57.2053 18.9015Z" fill="white"/>
</mask>
<g mask="url(#mask1_34_5)">
<path d="M51.6092 17.374C49.1453 16.4584 46.4268 15.1169 46.2172 14.5021C45.9851 13.8221 45.2565 11.138 44.9731 9.8871C44.9333 9.71462 44.8956 9.54167 44.8598 9.36831C46.0421 7.79144 47.8586 6.92293 48.6289 6.53984C48.6109 6.72026 48.6298 7.0102 48.7353 7.47597C49.0187 8.72691 49.5426 11.606 49.8154 12.2705C50.0411 12.8198 52.2709 14.326 54.2246 15.5659C52.9618 15.9649 52.0107 16.6093 51.6092 17.374ZM62.814 17.3779C62.4145 16.6132 61.4654 15.9684 60.2048 15.5685C62.1594 14.3282 64.3924 12.8203 64.6181 12.2705C64.8911 11.606 65.4148 8.72691 65.6982 7.47597C65.8015 7.02045 65.8217 6.73313 65.8059 6.55184C66.5932 6.94279 68.3992 7.81652 69.5689 9.39253C69.5428 9.52059 69.5069 9.68181 69.4604 9.8871C69.177 11.138 68.4486 13.8221 68.2165 14.5021C68.0062 15.1177 65.2808 16.4621 62.814 17.3779Z" fill="white"/>
</g>
<path d="M57.206 10.748C64.4208 10.748 71.0298 14.3996 69.3631 18.6888C68.5256 20.8445 64.0518 23.7439 57.206 23.7439C50.3602 23.7439 45.8861 20.8445 45.0486 18.6888C43.3821 14.3996 49.9909 10.748 57.206 10.748Z" fill="#3C7792"/>
<path d="M57.1181 14.3599C58.7578 14.3599 59.3903 14.6555 59.9697 14.8479C60.4953 15.0226 61.8884 15.1494 62.5622 14.2866C63.2514 13.4037 64.6212 13.3893 66.0364 13.7558C66.0364 13.7558 63.779 11.2495 57.1181 11.2495C50.4572 11.2495 48.1998 13.7558 48.1998 13.7558C49.6151 13.3893 50.985 13.4037 51.6743 14.2866C52.3478 15.1494 53.7409 15.0226 54.2666 14.8479C54.846 14.6555 55.4787 14.3599 57.1181 14.3599Z" fill="#6098C1"/>
<path fill-rule="evenodd" clip-rule="evenodd" d="M44.0096 28.7461C43.7636 27.6453 43.9994 25.461 44.6771 24.2976C46.329 21.4612 49.7588 22.0215 51.8663 23.4339V20.4411C50.6532 19.1348 45.9734 18.5891 43.2578 21.048C39.6848 24.2827 40.931 32.5882 40.931 32.5882L44.0096 28.7461Z" fill="url(#paint0_linear_34_5)"/>
<path d="M44.0096 28.7461C43.7636 27.6453 43.9994 25.461 44.6771 24.2976C46.329 21.4612 49.7588 22.0215 51.8663 23.4339V20.4411C50.6532 19.1348 45.9734 18.5891 43.2578 21.048C39.6848 24.2827 40.931 32.5882 40.931 32.5882L44.0096 28.7461Z" fill="#C6D8E3"/>
<mask id="mask2_34_5" style="mask-type:luminance" maskUnits="userSpaceOnUse" x="40" y="19" width="12" height="14">
<path d="M44.0096 28.7461C43.7636 27.6453 43.9994 25.461 44.6771 24.2976C46.329 21.4612 49.7588 22.0215 51.8663 23.4339V20.4411C50.6532 19.1348 45.9734 18.5891 43.2578 21.048C39.6848 24.2827 40.931 32.5882 40.931 32.5882L44.0096 28.7461Z" fill="white"/>
</mask>
<g mask="url(#mask2_34_5)">
<path d="M43.4959 29.795C43.4959 29.795 42.4502 24.2273 45.7083 22.2907C48.9663 20.3541 51.8663 22.8215 51.8663 22.8215L49.8108 27.697L43.4959 29.795Z" fill="#6098C1"/>
</g>
<path fill-rule="evenodd" clip-rule="evenodd" d="M73.4796 32.5882C73.4796 32.5882 74.7256 24.2827 71.1529 21.048C68.4371 18.5891 63.7575 19.1348 62.5443 20.4411V23.4339C64.6518 22.0215 68.0815 21.4612 69.7335 24.2976C70.4112 25.461 70.647 27.6453 70.4008 28.7461L73.4796 32.5882Z" fill="url(#paint1_linear_34_5)"/>
<path d="M73.4796 32.5882C73.4796 32.5882 74.7256 24.2827 71.1529 21.048C68.4371 18.5891 63.7575 19.1348 62.5443 20.4411V23.4339C64.6518 22.0215 68.0815 21.4612 69.7335 24.2976C70.4112 25.461 70.647 27.6453 70.4008 28.7461L73.4796 32.5882Z" fill="#C6D8E3"/>
<mask id="mask3_34_5" style="mask-type:luminance" maskUnits="userSpaceOnUse" x="62" y="19" width="12" height="14">
<path d="M73.4796 32.5882C73.4796 32.5882 74.7256 24.2827 71.1529 21.048C68.4371 18.5891 63.7575 19.1348 62.5443 20.4411V23.4339C64.6518 22.0215 68.0815 21.4612 69.7335 24.2976C70.4112 25.461 70.647 27.6453 70.4008 28.7461L73.4796 32.5882Z" fill="white"/>
</mask>
<g mask="url(#mask3_34_5)">
<path d="M70.9145 29.795C70.9145 29.795 71.9602 24.2273 68.7024 22.2907C65.4444 20.3541 62.5443 22.8215 62.5443 22.8215L64.5996 27.697L70.9145 29.795Z" fill="#6098C1"/>
</g>
<path d="M57.2105 15.1315C54.0012 15.1315 51.3998 16.5013 51.3998 18.1912V32.1012H63.0215V18.1912C63.0215 16.5013 60.4198 15.1315 57.2105 15.1315Z" fill="#C6D8E3"/>
<mask id="mask4_34_5" style="mask-type:luminance" maskUnits="userSpaceOnUse" x="51" y="15" width="13" height="18">
<path d="M57.1999 15.1315C53.9906 15.1315 51.3889 16.5013 51.3889 18.1912V32.1012H63.0108V18.1912C63.0108 16.5013 60.4092 15.1315 57.1999 15.1315Z" fill="white"/>
</mask>
<g mask="url(#mask4_34_5)">
<path d="M52.668 24.4012V16.8489C52.668 15.9415 53.3207 15.6326 54.2124 15.4812L55.0641 15.3366C55.0641 15.3366 54.2041 15.2604 54.1872 16.291C54.17 17.3216 54.1541 21.5527 54.1909 22.0302C54.2753 23.13 54.7901 23.9657 55.1668 23.9485C55.5435 23.9313 52.668 24.4012 52.668 24.4012ZM61.732 24.4012V16.8489C61.732 15.9415 61.0791 15.6326 60.1874 15.4812L59.3357 15.3366C59.3357 15.3366 60.1956 15.2604 60.2126 16.291C60.2298 17.3216 60.2457 21.5527 60.2089 22.0302C60.1245 23.13 59.6097 23.9657 59.233 23.9485C58.8563 23.9313 61.732 24.4012 61.732 24.4012Z" fill="white"/>
</g>
<path d="M84.321 76.4479C80.4996 81.716 75.5545 85.3744 69.5532 87.4063C69.5041 87.0898 69.376 86.7263 69.1802 86.338C68.7039 85.3931 65.092 79.3568 64.5022 75.7986C63.7392 71.1945 66.0805 68.4204 68.6417 62.7054C71.6164 56.0672 76.7298 43.3514 74.72 35.3311C72.5013 26.4794 64.0276 23.6976 57.2053 23.6976C50.3832 23.6976 41.9093 26.4794 39.6909 35.3311C37.6808 43.3514 42.7945 56.0672 45.7691 62.7054C48.3303 68.4204 50.6716 71.1945 49.9087 75.7986C49.3188 79.3568 45.7069 85.3931 45.2306 86.338C45.0347 86.7263 44.9066 87.0898 44.8576 87.4063C38.8561 85.3746 33.9108 81.7162 30.0894 76.4479C24.5651 68.8316 21.6449 58.0372 21.6449 45.2315C21.6449 32.4195 24.5606 21.6253 30.0762 14.0152C36.2588 5.48481 45.3866 1.15953 57.2053 1.15953C69.0241 1.15953 78.1516 5.48481 84.3345 14.0152C89.8499 21.6253 92.7653 32.4195 92.7653 45.2315C92.7653 58.037 89.8453 68.8316 84.321 76.4479ZM85.0487 13.4942C78.6905 4.72168 69.3227 0.273361 57.2053 0.273361C45.0882 0.273361 35.7199 4.72146 29.3617 13.4942C23.7356 21.2566 20.7616 32.231 20.7616 45.2315C20.7616 58.2257 23.7402 69.2003 29.3752 76.969C33.5661 82.7468 39.0638 86.6402 45.7835 88.6307C45.9705 88.6915 46.1998 88.7651 46.4764 88.8477C46.628 88.8931 46.8144 88.8717 47.0156 88.8504C47.227 88.8279 47.4543 88.8054 47.6744 88.8604C48.0139 88.9455 48.3025 89.3244 48.7188 89.4106C50.6594 89.8125 53.4464 90.1897 57.2038 90.1897H57.2068C60.9642 90.1897 63.7514 89.8125 65.6921 89.4106C66.1632 89.3129 66.5538 88.894 66.927 88.7987C67.1171 88.75 67.3026 88.7853 67.476 88.8207C67.6426 88.8545 67.7976 88.8885 67.9344 88.8477C68.2111 88.7651 68.4405 88.6913 68.6276 88.6307C75.347 86.6399 80.8446 82.7466 85.0352 76.969C90.6702 69.2003 93.6488 58.2257 93.6488 45.2315C93.6488 32.231 90.6748 21.2566 85.0487 13.4942Z" fill="#C6D8E3"/>
<mask id="mask5_34_5" style="mask-type:luminance" maskUnits="userSpaceOnUse" x="39" y="23" width="37" height="68">
<path d="M57.2068 90.1896C64.4609 90.1896 68.0984 88.784 69.0108 88.5076C69.7524 88.2831 69.717 87.4026 69.1802 86.338C68.7039 85.3931 65.092 79.3568 64.5022 75.7986C63.7392 71.1945 66.0805 68.4204 68.6417 62.7054C71.6164 56.0672 76.7298 43.3514 74.72 35.3311C72.5013 26.4794 64.0276 23.6976 57.2053 23.6976C50.3832 23.6976 41.9093 26.4794 39.6909 35.3311C37.6808 43.3514 42.7945 56.0672 45.7691 62.7054C48.3303 68.4204 50.6716 71.1945 49.9087 75.7986C49.3188 79.3568 45.7069 85.3931 45.2306 86.338C44.6938 87.4026 44.6584 88.2831 45.4 88.5076C46.3124 88.784 49.95 90.1896 57.2038 90.1896H57.2068Z" fill="white"/>
</mask>
<g mask="url(#mask5_34_5)">
<path fill-rule="evenodd" clip-rule="evenodd" d="M48.7188 89.4106C47.9635 89.2556 47.2154 89.0678 46.4764 88.8477C46.5421 88.8674 46.6145 88.8746 46.6917 88.8746C46.7924 88.8746 46.9016 88.8624 47.0156 88.8504C47.1322 88.836 47.2495 88.8279 47.367 88.8261C47.4695 88.8261 47.5728 88.8351 47.6744 88.8604C48.0139 88.9455 48.3025 89.3244 48.7188 89.4106Z" fill="white"/>
<path d="M48.7187 89.4106C48.3025 89.3244 48.0138 88.9455 47.6743 88.8604C47.5737 88.8365 47.4705 88.825 47.367 88.8261C47.2476 88.8261 47.1293 88.8381 47.0156 88.8504C46.9016 88.8624 46.7924 88.8746 46.6917 88.8746C46.6145 88.8746 46.5421 88.8674 46.4764 88.8477C46.6245 88.0534 46.9236 87.2137 47.4816 86.3681C49.5256 83.2724 50.6636 79.4345 51.1612 77.2736C52.818 70.0806 45.1397 64.3353 42.0772 43.8553C39.7387 28.2171 50.1087 25.353 53.459 24.9595L54.7853 24.7732C42.6276 28.9784 45.7869 46.919 48.2751 55.7343C51.42 66.8754 53.459 71.5715 52.8909 77.1966C52.7152 78.9371 51.5914 83.1465 49.8651 86.3633C49.2483 87.5124 48.9093 87.9454 48.7187 89.4106ZM65.6921 89.4106C66.1632 89.3129 66.5538 88.894 66.927 88.7987C66.9938 88.7814 67.0601 88.7749 67.1253 88.7749C67.2461 88.7749 67.3635 88.7978 67.4759 88.8207C67.5882 88.8436 67.6954 88.8663 67.795 88.8665C67.8433 88.8665 67.8898 88.861 67.9344 88.8477C67.1954 89.0677 66.4473 89.2555 65.6921 89.4106Z" fill="white"/>
<path d="M65.6921 89.4106C65.5016 87.9454 65.1625 87.5124 64.5457 86.3633C62.8192 83.1465 61.6957 78.9371 61.5199 77.1966C60.9518 71.5715 62.9908 66.8754 66.1356 55.7343C68.6239 46.919 71.7832 28.9784 59.6256 24.7732L60.9518 24.9595C64.3021 25.353 74.6721 28.2171 72.3337 43.8553C69.2712 64.3353 61.5928 70.0806 63.2497 77.2736C63.7473 79.4345 64.8852 83.2724 66.929 86.3681C67.4873 87.2137 67.7863 88.0534 67.9344 88.8477C67.8891 88.8607 67.8422 88.8671 67.795 88.8665C67.6954 88.8663 67.5882 88.8436 67.476 88.8207C67.3635 88.7978 67.2461 88.7749 67.1254 88.7749C67.0601 88.7749 66.9938 88.7814 66.927 88.7987C66.5538 88.894 66.1632 89.3129 65.6921 89.4106Z" fill="white"/>
<path d="M57.2053 40.3905C54.9062 40.3905 52.6789 40.4887 50.5487 40.6743C50.6834 37.1072 53.6169 34.2464 57.2053 34.2464C60.7939 34.2464 63.7275 37.1072 63.8621 40.6743C61.732 40.4887 59.5044 40.3905 57.2053 40.3905ZM57.2053 47.6138C53.8142 47.6138 51.0087 45.0589 50.5964 41.7677C52.7937 41.5683 54.999 41.4689 57.2053 41.4697C59.474 41.4697 61.6885 41.5736 63.8145 41.7677C63.4021 45.0589 60.5967 47.6138 57.2053 47.6138ZM64.9406 40.7769C64.8589 36.567 61.4216 33.1672 57.2053 33.1672C52.9892 33.1672 49.552 36.567 49.4702 40.7769C37.2539 42.0306 28.512 46.2056 28.512 51.3005H29.5879C29.5879 46.9157 38.1514 43.0916 49.5254 41.8738C49.9915 45.7106 53.2567 48.6931 57.2053 48.6931C61.1541 48.6931 64.4193 45.7106 64.8854 41.8738C76.2594 43.0916 84.8227 46.9157 84.8227 51.3005H85.8987C85.8987 46.2058 77.1568 42.0308 64.9406 40.7769Z" fill="#6098C1"/>
</g>
<path d="M52.6023 88.0591C52.6023 88.0591 54.0136 77.2406 57.2053 77.2406C60.397 77.2406 61.8083 88.0591 61.8083 88.0591C56.6905 89.2435 52.6023 88.0591 52.6023 88.0591Z" fill="white"/>
<path d="M46.1392 110.289C46.2428 109.38 45.9659 108.532 45.2926 107.7L42.1154 103.779L40.5418 105.062L43.459 108.662C43.9669 109.288 44.1084 109.634 44.0606 110.147C44.0257 110.551 43.7797 110.966 43.3863 111.286C42.9949 111.606 42.5397 111.761 42.1383 111.713C41.6294 111.655 41.3196 111.446 40.8137 110.818L37.8954 107.22L36.3218 108.502L39.499 112.425C40.1762 113.256 40.9451 113.7 41.8535 113.783C41.96 113.793 42.0666 113.801 42.1722 113.801C43.0516 113.812 43.8683 113.499 44.6601 112.855C45.5426 112.133 46.0256 111.293 46.1392 110.289ZM54.1469 99.9487L49.0504 100.988C48.9438 101.006 48.8418 101.045 48.7505 101.103C48.6592 101.161 48.5803 101.236 48.5186 101.325C48.4605 101.417 48.4215 101.519 48.4037 101.626C48.3859 101.734 48.3897 101.843 48.415 101.949L49.4309 106.968C49.5962 107.785 49.9617 108.373 50.5165 108.716C50.883 108.943 51.3233 109.056 51.8292 109.056C52.0882 109.056 52.3631 109.026 52.6559 108.966L55.841 108.318L55.4576 106.423L52.3591 107.054C51.7246 107.184 51.5185 107.113 51.3731 106.399L51.2645 105.859L54.85 105.13L54.4706 103.257L50.885 103.986L50.6131 102.641L54.5313 101.844L54.1469 99.9487ZM64.0579 102.688L67.1125 103.482L67.5956 101.614L64.4543 100.798C62.7332 100.35 61.554 100.997 61.1357 102.617L59.8538 107.582C59.8231 107.686 59.8135 107.795 59.8255 107.903C59.8375 108.01 59.8708 108.114 59.9236 108.209C59.98 108.301 60.0544 108.381 60.1421 108.443C60.2299 108.506 60.3293 108.551 60.4345 108.574L61.6008 108.877L62.4275 105.666L65.9632 106.585L66.4393 104.738L62.9035 103.819L63.041 103.289C63.2232 102.585 63.4324 102.525 64.0579 102.688ZM75.421 105.961L75.1113 105.721C74.6272 105.348 74.2448 105.507 73.9649 105.691L66.7102 110.401L68.6065 111.477L73.2309 108.477L72.4341 111.172L71.7319 110.643L70.5198 111.515L72.0257 112.642L71.6751 113.852L73.3364 115.378L75.7447 107.065C75.8403 106.772 75.91 106.339 75.421 105.961ZM57.3041 110.447C51.3541 110.447 45.9559 113.118 42.6632 117.067L43.708 118.361C46.6979 114.628 51.7854 112.061 57.3051 112.061C62.8239 112.061 67.9123 114.629 70.9023 118.361L71.946 117.067C68.6533 113.118 63.2551 110.448 57.3051 110.448L57.3041 110.447ZM79.3113 104.325C73.2777 99.1005 65.4622 96.2232 57.3051 96.2232C49.148 96.2232 41.3326 99.1005 35.2989 104.325C34.7222 104.825 34.1641 105.346 33.6257 105.887L34.7033 107.223C35.2512 106.666 35.8211 106.131 36.4114 105.619C42.1363 100.663 49.5564 97.9326 57.3051 97.9326C65.0539 97.9326 72.4739 100.663 78.1978 105.619C78.7882 106.131 79.3581 106.666 79.9059 107.223L80.9846 105.887C80.446 105.346 79.8879 104.825 79.3113 104.325ZM96.3127 135.498L98.5736 133.428C101.226 130.999 102.742 128.782 102.742 126.45C102.742 123.569 100.571 121.498 97.228 121.498C93.8397 121.498 91.6744 123.592 91.7412 126.855L94.501 127.013C94.4114 125.279 95.3875 124.02 97.0936 124.02C98.731 124.02 99.8027 125.055 99.7568 126.675C99.712 128.251 98.5348 129.854 96.6444 131.626C95.4323 132.763 91.8328 135.856 91.8328 135.856V138.041H102.88V135.498H96.3127ZM71.7608 135.498L74.0217 133.428C76.674 130.999 78.1889 128.782 78.1889 126.45C78.1889 123.569 76.0186 121.498 72.6751 121.498C69.2878 121.498 67.1215 123.592 67.1882 126.855L69.9491 127.013C69.8595 125.279 70.8355 124.02 72.5406 124.02C74.179 124.02 75.2497 125.055 75.2049 126.675C75.1601 128.251 73.9818 129.854 72.0925 131.626C70.8803 132.763 67.2799 135.856 67.2799 135.856V138.041H78.3273V135.498H71.7608ZM113.695 131.626V121.724H109.858L102.999 132.009V134.147H108.868L109.257 131.626H106.185L110.839 124.477L110.841 124.466V124.47L110.844 124.466V131.623H110.842L110.843 134.144L110.844 138.038H113.694V134.144H115.915V131.623L113.695 131.626ZM61.6297 129.752C61.6297 132.378 60.2921 134.18 58.1716 134.562L58.7294 138.178C63.1137 137.609 65.9303 134.382 65.9303 129.752C65.9303 124.66 62.4942 121.258 57.3051 121.258C52.1161 121.258 48.6779 124.66 48.6779 129.752C48.6779 134.382 51.4966 137.609 55.8809 138.177L56.4386 134.561C54.3172 134.181 52.9796 132.378 52.9796 129.752C52.9796 126.829 54.6877 124.866 57.3041 124.866C59.9216 124.866 61.6297 126.829 61.6297 129.751V129.752ZM46.668 127.058C46.668 123.997 44.5366 121.723 40.5198 121.723H32.6665V138.042H36.7052V125.348H40.1384C41.5069 125.348 42.4272 126.024 42.4272 127.373C42.4272 128.634 41.6642 130.021 40.1384 130.021H38.2799L41.3495 138.042H45.677L42.708 132.677C45.198 132.16 46.668 129.691 46.668 127.058ZM0.914642 138.041H12.6274V134.553H4.95335V131.56H11.9551V128.273H4.95335V125.235H12.6274V121.724H0.914642V138.041ZM88.0481 129.876C88.0481 125.882 87.0382 124.047 85.1079 124.047C83.0443 124.047 82.1469 126.158 82.1469 129.807C82.1469 133.847 83.1558 135.683 85.1079 135.683C87.1497 135.683 88.0481 133.572 88.0481 129.876ZM91.032 129.876C91.032 135.454 88.7662 138.254 85.1079 138.254C81.137 138.254 79.14 135.109 79.14 129.807C79.14 124.275 81.3611 121.498 85.1079 121.498C88.9674 121.498 91.032 124.597 91.032 129.876ZM15.7936 121.724H19.8323V131.874C19.8323 133.674 20.9767 134.643 22.6599 134.643C24.5224 134.643 25.4865 133.54 25.4865 131.875V121.724H29.5033V132.032C29.5033 135.813 27.0133 138.266 22.6599 138.266C18.5087 138.266 15.7936 135.97 15.7936 132.032V121.724ZM67.8834 143.221H66.6424L63.1306 152.151H64.273L64.7899 150.798L65.8895 147.873H65.8945L67.2689 144.256L69.0985 149.072H66.4243L66.5707 149.934H69.4173L70.2638 152.152H71.4311L67.8834 143.221ZM48.3831 148.482C50.1271 148.456 51.2685 147.484 51.2685 145.846C51.2685 144.294 50.1271 143.222 48.3104 143.222H44.3434V152.152H45.3872V144.183H48.2238C49.403 144.183 50.1759 144.799 50.1759 145.896C50.1759 146.942 49.4887 147.644 48.2238 147.644H46.3822L50.2257 152.152H51.5394L48.3831 148.482ZM52.7794 143.222H53.9825L57.3709 148.605L60.7104 143.222H61.9016V152.152H60.8588V144.762L57.6169 149.96H57.1129L53.8222 144.757V152.152H52.7794V143.222ZM88.5341 143.222L85.2922 147.929V152.152H84.2494V147.929L80.9587 143.223H82.1738L84.7773 147.152L87.3668 143.222H88.5341ZM79.9268 143.222V152.152H78.7974L73.8006 144.836V152.152H72.7568V143.222H73.8872L78.884 150.501V143.222H79.9268ZM36.4124 143.222H42.6493V144.183H37.4572V147.226H42.2827V148.137H37.4572V151.192H42.6512V152.152H36.4144L36.4124 143.222ZM26.0741 147.706C26.0741 144.972 27.8171 143.1 30.4943 143.1C32.5809 143.1 34.1655 144.245 34.5081 145.958H33.4285C33.0719 144.824 31.9056 144.06 30.5062 144.06C28.4675 144.06 27.1667 145.526 27.1667 147.706C27.1667 149.898 28.4804 151.34 30.5311 151.34C32.3598 151.34 33.6984 150.181 33.7113 148.506L33.797 148.456H29.7931V147.595H34.7302C34.7541 147.805 34.779 148.002 34.779 148.235C34.779 150.649 33.0848 152.275 30.5302 152.275C27.8171 152.275 26.0741 150.452 26.0741 147.706Z" fill="#004F9F"/>
</g>
<defs>
<linearGradient id="paint0_linear_34_5" x1="51.2978" y1="25.9602" x2="40.6889" y2="25.9602" gradientUnits="userSpaceOnUse">
<stop stop-color="#6098C1"/>
<stop offset="1" stop-color="#C6D8E3"/>
</linearGradient>
<linearGradient id="paint1_linear_34_5" x1="63.1128" y1="25.9602" x2="73.7218" y2="25.9602" gradientUnits="userSpaceOnUse">
<stop stop-color="#6098C1"/>
<stop offset="1" stop-color="#C6D8E3"/>
</linearGradient>
<clipPath id="clip0_34_5">
<rect width="115" height="152" fill="white" transform="translate(0.914642 0.273743)"/>
</clipPath>
</defs>
</svg>
